<svg width="365" height="122" viewBox="0 0 365 122" fill="none" xmlns="http://www.w3.org/2000/svg">
<path d="M32.75 14.6875V35.4688H44.0781V52.1094H32.75V94.0625C32.75 97.3958 33.1927 99.6875 34.0781 100.938C35.0156 102.188 36.7865 102.812 39.3906 102.812C41.526 102.812 43.2708 102.63 44.625 102.266L44.4688 119.453C40.7188 120.859 36.6562 121.562 32.2812 121.562C18.0104 121.562 10.7969 113.385 10.6406 97.0312V52.1094H0.875V35.4688H10.6406V14.6875H32.75ZM51.3438 75C51.3438 62.1875 54.3646 52.1354 60.4062 44.8438C66.4479 37.5521 74.8073 33.9062 85.4844 33.9062C96.2656 33.9062 104.677 37.5521 110.719 44.8438C116.76 52.1354 119.781 62.2396 119.781 75.1562V80.5469C119.781 93.4115 116.786 103.464 110.797 110.703C104.807 117.943 96.4219 121.562 85.6406 121.562C74.8073 121.562 66.3698 117.943 60.3281 110.703C54.3385 103.411 51.3438 93.3073 51.3438 80.3906V75ZM73.5312 80.5469C73.5312 95.651 77.5677 103.203 85.6406 103.203C93.0885 103.203 97.099 96.901 97.6719 84.2969L97.75 75C97.75 67.2917 96.6823 61.5885 94.5469 57.8906C92.4115 54.1406 89.3906 52.2656 85.4844 52.2656C81.7344 52.2656 78.7917 54.1406 76.6562 57.8906C74.5729 61.5885 73.5312 67.2917 73.5312 75V80.5469ZM135.406 108.75C135.406 105.208 136.578 102.292 138.922 100C141.318 97.7083 144.417 96.5625 148.219 96.5625C151.917 96.5625 154.99 97.7083 157.438 100C159.885 102.24 161.109 105.156 161.109 108.75C161.109 112.396 159.859 115.339 157.359 117.578C154.911 119.766 151.865 120.859 148.219 120.859C144.521 120.859 141.448 119.74 139 117.5C136.604 115.26 135.406 112.344 135.406 108.75ZM177.203 75.1562C177.203 61.3021 179.547 50.9635 184.234 44.1406C188.922 37.3177 195.745 33.9062 204.703 33.9062C211.214 33.9062 216.63 36.7188 220.953 42.3438V0H243.219V120H223.141L222.125 111.406C217.594 118.177 211.76 121.562 204.625 121.562C195.771 121.562 189 118.177 184.312 111.406C179.677 104.635 177.307 94.6875 177.203 81.5625V75.1562ZM199.391 80.7031C199.391 89.0365 200.276 94.8698 202.047 98.2031C203.818 101.484 206.812 103.125 211.031 103.125C215.406 103.125 218.714 101.172 220.953 97.2656V58.6719C218.766 54.5052 215.484 52.4219 211.109 52.4219C207.047 52.4219 204.078 54.0625 202.203 57.3438C200.328 60.625 199.391 66.4583 199.391 74.8438V80.7031ZM256.969 75C256.969 62.1875 259.99 52.1354 266.031 44.8438C272.073 37.5521 280.432 33.9062 291.109 33.9062C301.891 33.9062 310.302 37.5521 316.344 44.8438C322.385 52.1354 325.406 62.2396 325.406 75.1562V80.5469C325.406 93.4115 322.411 103.464 316.422 110.703C310.432 117.943 302.047 121.562 291.266 121.562C280.432 121.562 271.995 117.943 265.953 110.703C259.964 103.411 256.969 93.3073 256.969 80.3906V75ZM279.156 80.5469C279.156 95.651 283.193 103.203 291.266 103.203C298.714 103.203 302.724 96.901 303.297 84.2969L303.375 75C303.375 67.2917 302.307 61.5885 300.172 57.8906C298.036 54.1406 295.016 52.2656 291.109 52.2656C287.359 52.2656 284.417 54.1406 282.281 57.8906C280.198 61.5885 279.156 67.2917 279.156 75V80.5469ZM361.812 85H343.453L340.875 6.25H364.391L361.812 85ZM340.484 109.297C340.484 105.755 341.604 102.865 343.844 100.625C346.083 98.3333 349 97.1875 352.594 97.1875C356.135 97.1875 359.026 98.3333 361.266 100.625C363.505 102.865 364.625 105.755 364.625 109.297C364.625 112.786 363.505 115.651 361.266 117.891C359.078 120.13 356.188 121.25 352.594 121.25C348.948 121.25 346.005 120.13 343.766 117.891C341.578 115.651 340.484 112.786 340.484 109.297Z" fill="#F7F5FA"/>
</svg>
